<svg width="51" height="52" viewBox="0 0 51 52" fill="none" xmlns="http://www.w3.org/2000/svg">
<path d="M14.3889 45.4444C14.3889 48.5127 11.9016 51 8.83333 51C5.76508 51 3.27778 48.5127 3.27778 45.4444C3.27778 42.3762 5.76508 39.8889 8.83333 39.8889C11.9016 39.8889 14.3889 42.3762 14.3889 45.4444ZM14.3889 45.4444H36.6111C39.6794 45.4444 42.1667 42.9571 42.1667 39.8889V28.7778M36.6111 6.55556C36.6111 9.6238 39.0984 12.1111 42.1667 12.1111C45.2349 12.1111 47.7222 9.6238 47.7222 6.55556C47.7222 3.48731 45.2349 1 42.1667 1C39.0984 1 36.6111 3.48731 36.6111 6.55556ZM36.6111 6.55556H14.3889C11.3206 6.55556 8.83333 9.04286 8.83333 12.1111V23.2222M50.5 34.3333L43.1488 26.437C42.6064 25.8543 41.727 25.8543 41.1846 26.437L33.8333 34.3333M17.1667 17.6667L9.81542 25.563C9.27303 26.1457 8.39363 26.1457 7.85124 25.563L0.5 17.6667" stroke="#666666" stroke-linecap="round"/>
</svg>
