<svg width="40" height="42" viewBox="0 0 40 42" fill="none" xmlns="http://www.w3.org/2000/svg">
<path d="M30.25 16.0788L30.092 13.9491C29.9473 11.9982 28.2614 10.4867 26.2301 10.4867H22.0917M7.33331 36.5832H4.95525C2.70832 36.5832 0.933264 34.7475 1.09335 32.5895L2.47612 13.9491C2.62084 11.9982 4.30675 10.4867 6.33802 10.4867H10.4764M10.4764 10.4867V6.75861C10.4764 3.67017 13.0766 1.1665 16.2841 1.1665C19.4915 1.1665 22.0917 3.67017 22.0917 6.75861V10.4867M10.4764 10.4867H22.0917M30.25 28.2498C30.25 30.551 28.3845 32.4165 26.0833 32.4165C23.7821 32.4165 21.9166 30.551 21.9166 28.2498M17.75 40.7498H34.4166C36.7178 40.7498 38.5833 38.8844 38.5833 36.5832V26.1665C38.5833 23.8653 36.7178 21.9998 34.4166 21.9998H17.75C15.4488 21.9998 13.5833 23.8653 13.5833 26.1665V36.5832C13.5833 38.8844 15.4488 40.7498 17.75 40.7498Z" stroke="#666666" stroke-linecap="round"/>
</svg>
